{
	"asset":{
		"generator":"Khronos glTF Blender I/O v4.3.47",
		"version":"2.0"
	},
	"extensionsUsed":[
		"KHR_lights_punctual"
	],
	"extensionsRequired":[
		"KHR_lights_punctual"
	],
	"extensions":{
		"KHR_lights_punctual":{
			"lights":[
				{
					"color":[
						1,
						1,
						1
					],
					"intensity":54351.41306588226,
					"type":"point",
					"name":"Light"
				}
			]
		}
	},
	"scene":0,
	"scenes":[
		{
			"name":"Scene",
			"nodes":[
				0,
				1,
				2,
				3,
				4,
				5,
				6,
				7,
				8,
				9,
				10,
				11
			]
		}
	],
	"nodes":[
		{
			"extensions":{
				"KHR_lights_punctual":{
					"light":0
				}
			},
			"name":"Light",
			"rotation":[
				-0.28416627645492554,
				0.7269423007965088,
				0.34203392267227173,
				0.5232754945755005
			],
			"translation":[
				-9.06498908996582,
				6.437195777893066,
				-5.347105503082275
			]
		},
		{
			"camera":0,
			"name":"Camera",
			"rotation":[
				-0.20997299253940582,
				0.3857799470424652,
				0.09062844514846802,
				0.8937962055206299
			],
			"translation":[
				-5.782342910766602,
				5.491642951965332,
				2.584139347076416
			]
		},
		{
			"mesh":0,
			"name":"Plane",
			"scale":[
				0.9325053691864014,
				0.9325053691864014,
				0.9325053691864014
			],
			"translation":[
				-13.173776626586914,
				0.5311417579650879,
				-4.3225297927856445
			]
		},
		{
			"mesh":1,
			"name":"Plane.001",
			"scale":[
				0.8506662249565125,
				0.8506662249565125,
				0.8506662249565125
			],
			"translation":[
				-13.195211410522461,
				0.47965046763420105,
				-4.324101448059082
			]
		},
		{
			"mesh":2,
			"name":"Cube",
			"scale":[
				0.059842344373464584,
				0.059842344373464584,
				0.059842344373464584
			],
			"translation":[
				-14.501155853271484,
				0.5041489601135254,
				-3.531949996948242
			]
		},
		{
			"mesh":3,
			"name":"Cylinder",
			"scale":[
				0.05674159154295921,
				0.011581270024180412,
				0.05674159154295921
			],
			"translation":[
				-14.498102188110352,
				0.4323534071445465,
				-3.5304625034332275
			]
		},
		{
			"mesh":4,
			"name":"Cylinder.001",
			"scale":[
				0.05674159154295921,
				0.011581270024180412,
				0.05674159154295921
			],
			"translation":[
				-12.53154182434082,
				0.42953988909721375,
				-3.5203278064727783
			]
		},
		{
			"mesh":5,
			"name":"Cylinder.002",
			"scale":[
				0.05674159154295921,
				0.011581270024180412,
				0.05674159154295921
			],
			"translation":[
				-12.521556854248047,
				0.428592711687088,
				-5.1321635246276855
			]
		},
		{
			"mesh":6,
			"name":"Cylinder.003",
			"scale":[
				0.05674159154295921,
				0.011581270024180412,
				0.05674159154295921
			],
			"translation":[
				-14.51001262664795,
				0.42639485001564026,
				-5.133780002593994
			]
		},
		{
			"mesh":7,
			"name":"Cube.001",
			"scale":[
				0.059842344373464584,
				0.059842344373464584,
				0.059842344373464584
			],
			"translation":[
				-14.513986587524414,
				0.49361851811408997,
				-5.1340203285217285
			]
		},
		{
			"mesh":8,
			"name":"Cube.002",
			"scale":[
				0.059842344373464584,
				0.059842344373464584,
				0.059842344373464584
			],
			"translation":[
				-12.522689819335938,
				0.4992528259754181,
				-5.134860515594482
			]
		},
		{
			"mesh":9,
			"name":"Cube.003",
			"scale":[
				0.059842344373464584,
				0.059842344373464584,
				0.059842344373464584
			],
			"translation":[
				-12.533525466918945,
				0.4996460974216461,
				-3.5231363773345947
			]
		}
	],
	"cameras":[
		{
			"name":"Camera",
			"perspective":{
				"aspectRatio":1.7777777777777777,
				"yfov":0.39959652046304894,
				"zfar":100,
				"znear":0.10000000149011612
			},
			"type":"perspective"
		}
	],
	"materials":[
		{
			"doubleSided":true,
			"name":"Material.001",
			"pbrMetallicRoughness":{
				"metallicFactor":0
			}
		},
		{
			"doubleSided":true,
			"name":"Material.002",
			"pbrMetallicRoughness":{
				"metallicFactor":0
			}
		},
		{
			"doubleSided":true,
			"name":"Material.008",
			"pbrMetallicRoughness":{
				"roughnessFactor":0.5
			}
		},
		{
			"doubleSided":true,
			"name":"Material.004",
			"pbrMetallicRoughness":{
				"metallicFactor":0
			}
		},
		{
			"doubleSided":true,
			"name":"Material.005",
			"pbrMetallicRoughness":{
				"metallicFactor":0
			}
		},
		{
			"doubleSided":true,
			"name":"Material.006",
			"pbrMetallicRoughness":{
				"metallicFactor":0
			}
		},
		{
			"doubleSided":true,
			"name":"Material.003",
			"pbrMetallicRoughness":{
				"metallicFactor":0
			}
		},
		{
			"doubleSided":true,
			"name":"Material.010",
			"pbrMetallicRoughness":{
				"roughnessFactor":0.5
			}
		},
		{
			"doubleSided":true,
			"name":"Material.011",
			"pbrMetallicRoughness":{
				"roughnessFactor":0.5
			}
		},
		{
			"doubleSided":true,
			"name":"Material.009",
			"pbrMetallicRoughness":{
				"roughnessFactor":0.5
			}
		}
	],
	"meshes":[
		{
			"name":"Plane",
			"primitives":[
				{
					"attributes":{
						"POSITION":0,
						"NORMAL":1,
						"TEXCOORD_0":2,
						"TANGENT":3
					},
					"indices":4,
					"material":0
				}
			]
		},
		{
			"name":"Plane.001",
			"primitives":[
				{
					"attributes":{
						"POSITION":5,
						"NORMAL":6,
						"TEXCOORD_0":7,
						"TANGENT":8
					},
					"indices":9,
					"material":1
				}
			]
		},
		{
			"name":"Cube.001",
			"primitives":[
				{
					"attributes":{
						"POSITION":10,
						"NORMAL":11,
						"TEXCOORD_0":12,
						"TANGENT":13
					},
					"indices":14,
					"material":2
				}
			]
		},
		{
			"name":"Cylinder",
			"primitives":[
				{
					"attributes":{
						"POSITION":15,
						"NORMAL":16,
						"TEXCOORD_0":17
					},
					"indices":18,
					"material":3
				}
			]
		},
		{
			"name":"Cylinder.001",
			"primitives":[
				{
					"attributes":{
						"POSITION":19,
						"NORMAL":20,
						"TEXCOORD_0":21
					},
					"indices":18,
					"material":4
				}
			]
		},
		{
			"name":"Cylinder.002",
			"primitives":[
				{
					"attributes":{
						"POSITION":22,
						"NORMAL":23,
						"TEXCOORD_0":24
					},
					"indices":18,
					"material":5
				}
			]
		},
		{
			"name":"Cylinder.003",
			"primitives":[
				{
					"attributes":{
						"POSITION":25,
						"NORMAL":26,
						"TEXCOORD_0":27
					},
					"indices":18,
					"material":6
				}
			]
		},
		{
			"name":"Cube.002",
			"primitives":[
				{
					"attributes":{
						"POSITION":28,
						"NORMAL":29,
						"TEXCOORD_0":30,
						"TANGENT":31
					},
					"indices":14,
					"material":7
				}
			]
		},
		{
			"name":"Cube.003",
			"primitives":[
				{
					"attributes":{
						"POSITION":32,
						"NORMAL":33,
						"TEXCOORD_0":34,
						"TANGENT":35
					},
					"indices":14,
					"material":8
				}
			]
		},
		{
			"name":"Cube.004",
			"primitives":[
				{
					"attributes":{
						"POSITION":36,
						"NORMAL":37,
						"TEXCOORD_0":38,
						"TANGENT":39
					},
					"indices":14,
					"material":9
				}
			]
		}
	],
	"accessors":[
		{
			"bufferView":0,
			"componentType":5126,
			"count":24,
			"max":[
				0.8544597625732422,
				0.08142377436161041,
				0.9808869957923889
			],
			"min":[
				-1.5782076120376587,
				0,
				-0.9808869957923889
			],
			"type":"VEC3"
		},
		{
			"bufferView":1,
			"componentType":5126,
			"count":24,
			"type":"VEC3"
		},
		{
			"bufferView":2,
			"componentType":5126,
			"count":24,
			"type":"VEC2"
		},
		{
			"bufferView":3,
			"componentType":5126,
			"count":24,
			"type":"VEC4"
		},
		{
			"bufferView":4,
			"componentType":5123,
			"count":36,
			"type":"SCALAR"
		},
		{
			"bufferView":5,
			"componentType":5126,
			"count":32,
			"max":[
				0.8269100785255432,
				0.08142377436161041,
				0.9808869957923889
			],
			"min":[
				-1.5782076120376587,
				-0.025023870170116425,
				-0.9808869957923889
			],
			"type":"VEC3"
		},
		{
			"bufferView":6,
			"componentType":5126,
			"count":32,
			"type":"VEC3"
		},
		{
			"bufferView":7,
			"componentType":5126,
			"count":32,
			"type":"VEC2"
		},
		{
			"bufferView":8,
			"componentType":5126,
			"count":32,
			"type":"VEC4"
		},
		{
			"bufferView":9,
			"componentType":5123,
			"count":60,
			"type":"SCALAR"
		},
		{
			"bufferView":10,
			"componentType":5126,
			"count":24,
			"max":[
				1,
				1,
				1
			],
			"min":[
				-1,
				-1,
				-1
			],
			"type":"VEC3"
		},
		{
			"bufferView":11,
			"componentType":5126,
			"count":24,
			"type":"VEC3"
		},
		{
			"bufferView":12,
			"componentType":5126,
			"count":24,
			"type":"VEC2"
		},
		{
			"bufferView":13,
			"componentType":5126,
			"count":24,
			"type":"VEC4"
		},
		{
			"bufferView":14,
			"componentType":5123,
			"count":36,
			"type":"SCALAR"
		},
		{
			"bufferView":15,
			"componentType":5126,
			"count":3456,
			"max":[
				1,
				1,
				1
			],
			"min":[
				-1,
				-88.83161163330078,
				-1
			],
			"type":"VEC3"
		},
		{
			"bufferView":16,
			"componentType":5126,
			"count":3456,
			"type":"VEC3"
		},
		{
			"bufferView":17,
			"componentType":5126,
			"count":3456,
			"type":"VEC2"
		},
		{
			"bufferView":18,
			"componentType":5123,
			"count":5364,
			"type":"SCALAR"
		},
		{
			"bufferView":19,
			"componentType":5126,
			"count":3456,
			"max":[
				1,
				1,
				1
			],
			"min":[
				-1,
				-88.83161163330078,
				-1
			],
			"type":"VEC3"
		},
		{
			"bufferView":20,
			"componentType":5126,
			"count":3456,
			"type":"VEC3"
		},
		{
			"bufferView":21,
			"componentType":5126,
			"count":3456,
			"type":"VEC2"
		},
		{
			"bufferView":22,
			"componentType":5126,
			"count":3456,
			"max":[
				1,
				1,
				1
			],
			"min":[
				-1,
				-88.83161163330078,
				-1
			],
			"type":"VEC3"
		},
		{
			"bufferView":23,
			"componentType":5126,
			"count":3456,
			"type":"VEC3"
		},
		{
			"bufferView":24,
			"componentType":5126,
			"count":3456,
			"type":"VEC2"
		},
		{
			"bufferView":25,
			"componentType":5126,
			"count":3456,
			"max":[
				1,
				1,
				1
			],
			"min":[
				-1,
				-88.83161163330078,
				-1
			],
			"type":"VEC3"
		},
		{
			"bufferView":26,
			"componentType":5126,
			"count":3456,
			"type":"VEC3"
		},
		{
			"bufferView":27,
			"componentType":5126,
			"count":3456,
			"type":"VEC2"
		},
		{
			"bufferView":28,
			"componentType":5126,
			"count":24,
			"max":[
				1,
				1,
				1
			],
			"min":[
				-1,
				-1,
				-1
			],
			"type":"VEC3"
		},
		{
			"bufferView":29,
			"componentType":5126,
			"count":24,
			"type":"VEC3"
		},
		{
			"bufferView":30,
			"componentType":5126,
			"count":24,
			"type":"VEC2"
		},
		{
			"bufferView":31,
			"componentType":5126,
			"count":24,
			"type":"VEC4"
		},
		{
			"bufferView":32,
			"componentType":5126,
			"count":24,
			"max":[
				1,
				1,
				1
			],
			"min":[
				-1,
				-1,
				-1
			],
			"type":"VEC3"
		},
		{
			"bufferView":33,
			"componentType":5126,
			"count":24,
			"type":"VEC3"
		},
		{
			"bufferView":34,
			"componentType":5126,
			"count":24,
			"type":"VEC2"
		},
		{
			"bufferView":35,
			"componentType":5126,
			"count":24,
			"type":"VEC4"
		},
		{
			"bufferView":36,
			"componentType":5126,
			"count":24,
			"max":[
				1,
				1,
				1
			],
			"min":[
				-1,
				-1,
				-1
			],
			"type":"VEC3"
		},
		{
			"bufferView":37,
			"componentType":5126,
			"count":24,
			"type":"VEC3"
		},
		{
			"bufferView":38,
			"componentType":5126,
			"count":24,
			"type":"VEC2"
		},
		{
			"bufferView":39,
			"componentType":5126,
			"count":24,
			"type":"VEC4"
		}
	],
	"bufferViews":[
		{
			"buffer":0,
			"byteLength":288,
			"byteOffset":0,
			"target":34962
		},
		{
			"buffer":0,
			"byteLength":288,
			"byteOffset":288,
			"target":34962
		},
		{
			"buffer":0,
			"byteLength":192,
			"byteOffset":576,
			"target":34962
		},
		{
			"buffer":0,
			"byteLength":384,
			"byteOffset":768,
			"target":34962
		},
		{
			"buffer":0,
			"byteLength":72,
			"byteOffset":1152,
			"target":34963
		},
		{
			"buffer":0,
			"byteLength":384,
			"byteOffset":1224,
			"target":34962
		},
		{
			"buffer":0,
			"byteLength":384,
			"byteOffset":1608,
			"target":34962
		},
		{
			"buffer":0,
			"byteLength":256,
			"byteOffset":1992,
			"target":34962
		},
		{
			"buffer":0,
			"byteLength":512,
			"byteOffset":2248,
			"target":34962
		},
		{
			"buffer":0,
			"byteLength":120,
			"byteOffset":2760,
			"target":34963
		},
		{
			"buffer":0,
			"byteLength":288,
			"byteOffset":2880,
			"target":34962
		},
		{
			"buffer":0,
			"byteLength":288,
			"byteOffset":3168,
			"target":34962
		},
		{
			"buffer":0,
			"byteLength":192,
			"byteOffset":3456,
			"target":34962
		},
		{
			"buffer":0,
			"byteLength":384,
			"byteOffset":3648,
			"target":34962
		},
		{
			"buffer":0,
			"byteLength":72,
			"byteOffset":4032,
			"target":34963
		},
		{
			"buffer":0,
			"byteLength":41472,
			"byteOffset":4104,
			"target":34962
		},
		{
			"buffer":0,
			"byteLength":41472,
			"byteOffset":45576,
			"target":34962
		},
		{
			"buffer":0,
			"byteLength":27648,
			"byteOffset":87048,
			"target":34962
		},
		{
			"buffer":0,
			"byteLength":10728,
			"byteOffset":114696,
			"target":34963
		},
		{
			"buffer":0,
			"byteLength":41472,
			"byteOffset":125424,
			"target":34962
		},
		{
			"buffer":0,
			"byteLength":41472,
			"byteOffset":166896,
			"target":34962
		},
		{
			"buffer":0,
			"byteLength":27648,
			"byteOffset":208368,
			"target":34962
		},
		{
			"buffer":0,
			"byteLength":41472,
			"byteOffset":236016,
			"target":34962
		},
		{
			"buffer":0,
			"byteLength":41472,
			"byteOffset":277488,
			"target":34962
		},
		{
			"buffer":0,
			"byteLength":27648,
			"byteOffset":318960,
			"target":34962
		},
		{
			"buffer":0,
			"byteLength":41472,
			"byteOffset":346608,
			"target":34962
		},
		{
			"buffer":0,
			"byteLength":41472,
			"byteOffset":388080,
			"target":34962
		},
		{
			"buffer":0,
			"byteLength":27648,
			"byteOffset":429552,
			"target":34962
		},
		{
			"buffer":0,
			"byteLength":288,
			"byteOffset":457200,
			"target":34962
		},
		{
			"buffer":0,
			"byteLength":288,
			"byteOffset":457488,
			"target":34962
		},
		{
			"buffer":0,
			"byteLength":192,
			"byteOffset":457776,
			"target":34962
		},
		{
			"buffer":0,
			"byteLength":384,
			"byteOffset":457968,
			"target":34962
		},
		{
			"buffer":0,
			"byteLength":288,
			"byteOffset":458352,
			"target":34962
		},
		{
			"buffer":0,
			"byteLength":288,
			"byteOffset":458640,
			"target":34962
		},
		{
			"buffer":0,
			"byteLength":192,
			"byteOffset":458928,
			"target":34962
		},
		{
			"buffer":0,
			"byteLength":384,
			"byteOffset":459120,
			"target":34962
		},
		{
			"buffer":0,
			"byteLength":288,
			"byteOffset":459504,
			"target":34962
		},
		{
			"buffer":0,
			"byteLength":288,
			"byteOffset":459792,
			"target":34962
		},
		{
			"buffer":0,
			"byteLength":192,
			"byteOffset":460080,
			"target":34962
		},
		{
			"buffer":0,
			"byteLength":384,
			"byteOffset":460272,
			"target":34962
		}
	],
	"buffers":[
		{
			"byteLength":460656,
			"uri":"Tisch-d0b27a91c9dc7ee214c31ec735d484fd.bin"
		}
	]
}
