{
	"asset":{
		"generator":"Khronos glTF Blender I/O v4.3.47",
		"version":"2.0"
	},
	"extensionsUsed":[
		"KHR_lights_punctual"
	],
	"extensionsRequired":[
		"KHR_lights_punctual"
	],
	"extensions":{
		"KHR_lights_punctual":{
			"lights":[
				{
					"color":[
						1,
						1,
						1
					],
					"intensity":1366,
					"type":"directional",
					"name":"Area"
				},
				{
					"color":[
						1,
						0.8161362409591675,
						0.6763365268707275
					],
					"intensity":341.5,
					"type":"directional",
					"name":"Point"
				},
				{
					"color":[
						0.5765019655227661,
						0.8108153343200684,
						1
					],
					"intensity":683,
					"type":"directional",
					"name":"Rim"
				},
				{
					"color":[
						1,
						1,
						1
					],
					"intensity":1366,
					"type":"directional",
					"name":"Area.001"
				},
				{
					"color":[
						1,
						0.8161362409591675,
						0.6763365268707275
					],
					"intensity":170.75,
					"type":"directional",
					"name":"Point.001"
				},
				{
					"color":[
						1,
						1,
						1
					],
					"intensity":1366,
					"type":"directional",
					"name":"Area.002"
				}
			]
		}
	},
	"scene":0,
	"scenes":[
		{
			"extras":{
				"gaf_props":{
					"IsShowingRadius":0,
					"IsShowingLabel":0,
					"hdri_handler_enabled":0,
					"OldWorldSettings":"World Output",
					"hdri_variation":0,
					"FileNotFoundError":0,
					"hdri":41,
					"hdri_rotation":-48.567047119140625,
					"ShowProgress":0,
					"Progress":0.0,
					"ProgressText":"Generating thumbnail: 261/445",
					"ProgressBarText":"58%",
					"hdri_search":"medium contrast",
					"Lights":"[['Fill', None, None], ['Key', None, None], ['Key Kick', None, None], ['Key Sharp', None, None], ['Kick', None, None], ['Rim1', None, None], ['Rim1.001', None, None], ['Rim1.002', None, None]]",
					"LightsHiddenRecord":"[['Fill', False, False], ['Key', False, False], ['Key Kick', False, False], ['Key Sharp', False, False], ['Kick', False, False], ['Rim1', False, False], ['Rim1.001', False, False], ['Rim1.002', False, False], ['WorldEnviroLight', True, False]]",
					"WorldVis":1,
					"WorldReflOnly":0,
					"hdri_saturation":0.30000001192092896,
					"hdri_brightness":-1.5,
					"hdri_warmth":1.0,
					"hdri_show_tags_ui":0,
					"ShowHDRIHaven":1,
					"SoloActive":"",
					"MoreExpand":"_Light:_(Sun)_",
					"hdri_advanced":1,
					"hdri_horz_shift":0.0,
					"hdri_horz_exp":0.0,
					"hdri_clamp":0.0,
					"hdri_contrast":1.100000023841858
				},
				"BakeTool_Jobs":{
					"is_baking":0
				},
				"collection_manager":{
					"update_header":[
						{
							"name":"updated",
							"last_name":"updated"
						}
					],
					"qcd_slots_blend_data":"{'1': 'Collection', '3': 'Lighting', '2': 'Set'}\nset()"
				},
				"NWBusyDrawing":"",
				"NWLazySource":"Viewer",
				"NWLazyTarget":"Viewer",
				"mfp_props":{},
				"hat_props":{
					"asset_type":1,
					"test_on_save":1
				},
				"grabDoc":{}
			},
			"name":"Scene",
			"nodes":[
				1,
				2,
				3,
				4,
				5,
				6,
				7,
				8,
				9,
				10
			]
		}
	],
	"nodes":[
		{
			"camera":0,
			"name":"Camera",
			"scale":[
				0.6999997496604919,
				0.7000000476837158,
				0.6999996900558472
			],
			"translation":[
				0,
				0,
				3.90500807762146
			]
		},
		{
			"children":[
				0
			],
			"mesh":0,
			"name":"Sphere"
		},
		{
			"mesh":1,
			"name":"Plane"
		},
		{
			"extensions":{
				"KHR_lights_punctual":{
					"light":0
				}
			},
			"name":"Key",
			"rotation":[
				-0.36123088002204895,
				0.5616123676300049,
				0.18932126462459564,
				0.7199036478996277
			],
			"translation":[
				0.9657024145126343,
				3.531301975250244,
				-0.1987489014863968
			]
		},
		{
			"extensions":{
				"KHR_lights_punctual":{
					"light":1
				}
			},
			"name":"Fill",
			"rotation":[
				-0.1688351333141327,
				-0.09993340820074081,
				0.5561531186103821,
				0.807590126991272
			],
			"translation":[
				-0.18434572219848633,
				0.00036787986755371094,
				1.599135398864746
			]
		},
		{
			"extensions":{
				"KHR_lights_punctual":{
					"light":2
				}
			},
			"name":"Rim1",
			"rotation":[
				0.6830764412879944,
				-0.5837468504905701,
				-0.11251892149448395,
				0.4242471754550934
			],
			"translation":[
				-1.8414123058319092,
				2.259891986846924,
				-0.07446098327636719
			]
		},
		{
			"extensions":{
				"KHR_lights_punctual":{
					"light":2
				}
			},
			"name":"Rim1.001",
			"rotation":[
				0.21150286495685577,
				-0.8707427382469177,
				-0.30054786801338196,
				0.3267180025577545
			],
			"translation":[
				-1.8414123058319092,
				2.259891986846924,
				-0.07446098327636719
			]
		},
		{
			"extensions":{
				"KHR_lights_punctual":{
					"light":2
				}
			},
			"name":"Rim1.002",
			"rotation":[
				0.42602887749671936,
				-0.7443326115608215,
				-0.260144978761673,
				0.44361358880996704
			],
			"translation":[
				-1.8414123058319092,
				2.259891986846924,
				-0.07446098327636719
			]
		},
		{
			"extensions":{
				"KHR_lights_punctual":{
					"light":3
				}
			},
			"name":"Key Sharp",
			"rotation":[
				-0.36123088002204895,
				0.5616123676300049,
				0.18932126462459564,
				0.7199036478996277
			],
			"translation":[
				1.331888198852539,
				3.3217601776123047,
				-0.036751747131347656
			]
		},
		{
			"extensions":{
				"KHR_lights_punctual":{
					"light":4
				}
			},
			"name":"Kick",
			"rotation":[
				0.9238860607147217,
				0.21894541382789612,
				0.10227160155773163,
				0.2967119514942169
			],
			"translation":[
				-0.18434572219848633,
				0.00036787986755371094,
				1.599135398864746
			]
		},
		{
			"extensions":{
				"KHR_lights_punctual":{
					"light":5
				}
			},
			"name":"Key Kick",
			"rotation":[
				-0.5311070084571838,
				0.78847736120224,
				0.060077812522649765,
				0.30433449149131775
			],
			"translation":[
				0.9657024145126343,
				3.531301975250244,
				-0.1987489014863968
			]
		}
	],
	"cameras":[
		{
			"name":"Camera",
			"perspective":{
				"aspectRatio":1,
				"yfov":0.4173635244369507,
				"zfar":1000,
				"znear":0.10000000149011612
			},
			"type":"perspective"
		}
	],
	"materials":[
		{
			"doubleSided":true,
			"name":"worn_planks",
			"normalTexture":{
				"index":0
			},
			"pbrMetallicRoughness":{
				"baseColorTexture":{
					"index":1
				},
				"metallicFactor":0,
				"metallicRoughnessTexture":{
					"index":2
				}
			}
		}
	],
	"meshes":[
		{
			"name":"Sphere",
			"primitives":[
				{
					"attributes":{
						"POSITION":0,
						"NORMAL":1,
						"TEXCOORD_0":2,
						"TANGENT":3
					},
					"indices":4,
					"material":0
				}
			]
		},
		{
			"name":"Plane",
			"primitives":[
				{
					"attributes":{
						"POSITION":5,
						"NORMAL":6,
						"TEXCOORD_0":7,
						"TANGENT":8
					},
					"indices":9,
					"material":0
				}
			]
		}
	],
	"textures":[
		{
			"sampler":0,
			"source":0
		},
		{
			"sampler":0,
			"source":1
		},
		{
			"sampler":0,
			"source":2
		}
	],
	"images":[
		{
			"mimeType":"image/png",
			"name":"worn_planks_nor_gl.png",
			"uri":"../../textures/worn_planks_4k.blend/textures/worn_planks_nor_gl_4k.exr"
		},
		{
			"mimeType":"image/jpeg",
			"name":"worn_planks_diff.png",
			"uri":"../../textures/worn_planks_4k.blend/textures/worn_planks_diff_4k.jpg"
		},
		{
			"mimeType":"image/png",
			"name":"worn_planks_rough.png",
			"uri":"../../textures/worn_planks_4k.blend/textures/worn_planks_rough_4k.exr"
		}
	],
	"accessors":[
		{
			"bufferView":0,
			"componentType":5126,
			"count":9004,
			"max":[
				0.6977548599243164,
				0.6997714638710022,
				0.6977550983428955
			],
			"min":[
				-0.6977545022964478,
				-0.6997714638710022,
				-0.6977543234825134
			],
			"type":"VEC3"
		},
		{
			"bufferView":1,
			"componentType":5126,
			"count":9004,
			"type":"VEC3"
		},
		{
			"bufferView":2,
			"componentType":5126,
			"count":9004,
			"type":"VEC2"
		},
		{
			"bufferView":3,
			"componentType":5126,
			"count":9004,
			"type":"VEC4"
		},
		{
			"bufferView":4,
			"componentType":5123,
			"count":48384,
			"type":"SCALAR"
		},
		{
			"bufferView":5,
			"componentType":5126,
			"count":4225,
			"max":[
				0.7000001668930054,
				0,
				0.7000001668930054
			],
			"min":[
				-0.7000001668930054,
				0,
				-0.7000001668930054
			],
			"type":"VEC3"
		},
		{
			"bufferView":6,
			"componentType":5126,
			"count":4225,
			"type":"VEC3"
		},
		{
			"bufferView":7,
			"componentType":5126,
			"count":4225,
			"type":"VEC2"
		},
		{
			"bufferView":8,
			"componentType":5126,
			"count":4225,
			"type":"VEC4"
		},
		{
			"bufferView":9,
			"componentType":5123,
			"count":24576,
			"type":"SCALAR"
		}
	],
	"bufferViews":[
		{
			"buffer":0,
			"byteLength":108048,
			"byteOffset":0,
			"target":34962
		},
		{
			"buffer":0,
			"byteLength":108048,
			"byteOffset":108048,
			"target":34962
		},
		{
			"buffer":0,
			"byteLength":72032,
			"byteOffset":216096,
			"target":34962
		},
		{
			"buffer":0,
			"byteLength":144064,
			"byteOffset":288128,
			"target":34962
		},
		{
			"buffer":0,
			"byteLength":96768,
			"byteOffset":432192,
			"target":34963
		},
		{
			"buffer":0,
			"byteLength":50700,
			"byteOffset":528960,
			"target":34962
		},
		{
			"buffer":0,
			"byteLength":50700,
			"byteOffset":579660,
			"target":34962
		},
		{
			"buffer":0,
			"byteLength":33800,
			"byteOffset":630360,
			"target":34962
		},
		{
			"buffer":0,
			"byteLength":67600,
			"byteOffset":664160,
			"target":34962
		},
		{
			"buffer":0,
			"byteLength":49152,
			"byteOffset":731760,
			"target":34963
		}
	],
	"samplers":[
		{
			"magFilter":9729,
			"minFilter":9987
		}
	],
	"buffers":[
		{
			"byteLength":780912,
			"uri":"worn_planks_4k-0fc4dc012e08046f96547139782b5d42.bin"
		}
	]
}
